<svg width="16" height="24" viewBox="0 0 16 24" fill="none" xmlns="http://www.w3.org/2000/svg">
<path d="M0.5 8.72727C0.5 4.12424 3.51193 0.5 8 0.5C12.4881 0.5 15.5 4.12424 15.5 8.72727C15.5 9.82013 15.0389 11.2955 14.2945 12.941C13.557 14.5709 12.5695 16.3087 11.5754 17.907C10.5824 19.5037 9.5885 20.9521 8.84245 22.0018C8.50163 22.4813 8.21287 22.8772 8 23.1654C7.78713 22.8772 7.49837 22.4813 7.15755 22.0018C6.4115 20.9521 5.41762 19.5037 4.42458 17.907C3.43052 16.3087 2.44297 14.5709 1.70555 12.941C0.961094 11.2955 0.5 9.82013 0.5 8.72727ZM4.59091 8.72727C4.59091 10.6101 6.11721 12.1364 8 12.1364C9.88279 12.1364 11.4091 10.6101 11.4091 8.72727C11.4091 6.84448 9.88279 5.31818 8 5.31818C6.11721 5.31818 4.59091 6.84448 4.59091 8.72727Z" fill="#20661F" stroke="#20661F"/>
</svg>
