<svg width="35" height="29" viewBox="0 0 35 29" fill="none" xmlns="http://www.w3.org/2000/svg">
<path d="M28.7097 26.5282C26.3175 30.779 21.0383 27.6727 18.489 27.6727C15.9398 27.6727 11.4005 31.2695 8.43322 26.5282C5.46593 21.787 14.0381 14.7569 18.489 14.7569C22.94 14.7569 32.298 20.1521 28.7097 26.5282Z" fill="#54D252"/>
<path d="M34.5925 14.2474C34.334 16.1859 33.1701 19.2092 30.3256 18.6921C28.3699 18.3365 27.8366 15.1363 28.1921 13.1806C28.5102 11.4314 30.3256 8.79068 32.2812 9.09155C34.2369 9.39242 34.948 11.5806 34.5925 14.2474Z" fill="#54D252"/>
<path d="M8.07164 13.0999C8.64612 14.9693 8.85085 18.2025 6.05013 18.9202C4.1246 19.4136 2.30387 16.7283 1.81046 14.8028C1.36914 13.0806 1.91621 9.92308 3.81887 9.37997C5.72154 8.83685 7.28132 10.5282 8.07164 13.0999Z" fill="#54D252"/>
<path d="M27.2009 7.08649C27.2009 9.42371 25.7785 12.8017 23.1094 12.8017C20.4402 12.8016 19.426 9.07363 19.3782 7.0865C19.3355 5.30914 20.618 1.77886 23.1094 1.77886C25.6007 1.77887 27.2009 4.39608 27.2009 7.08649Z" fill="#54D252"/>
<path d="M17.2989 6.79024C17.4481 9.1227 16.2442 12.5846 13.5805 12.7549C10.9168 12.9252 9.6667 9.26956 9.4922 7.28952C9.33611 5.51852 10.3907 1.91358 12.877 1.75457C15.3632 1.59557 17.1272 4.10532 17.2989 6.79024Z" fill="#54D252"/>
</svg>
