<svg width="38" height="31" viewBox="0 0 38 31" fill="none" xmlns="http://www.w3.org/2000/svg">
<path d="M15.2281 29.0499C14.207 28.7026 10.4248 17.848 10.4248 17.848M15.2281 29.0499C16.032 25.7689 17.2867 20.6485 17.2867 20.6485M15.2281 29.0499C16.2493 29.3972 22.0372 24.1491 22.0372 24.1491M10.4248 17.848C10.4248 17.848 1.95921 15.7436 1.50435 15.0476C1.04948 14.3516 36.4326 0.139312 36.5 1.04115C36.5 1.04115 30.3243 29.75 29.6381 29.75C28.2657 29.75 22.0372 24.1491 22.0372 24.1491M10.4248 17.848C10.4248 17.848 28.0211 7.79415 28.2657 8.04231C28.5104 8.29047 17.2867 20.6485 17.2867 20.6485M17.2867 20.6485L22.0372 24.1491" stroke="#20661F" stroke-width="2"/>
</svg>
