<svg width="38" height="37" viewBox="0 0 38 37" fill="none" xmlns="http://www.w3.org/2000/svg">
<path d="M11.4106 23.8309C22.3025 25.3309 25.9332 35.3309 25.9332 35.3309" stroke="white" stroke-width="2"/>
<path d="M13.4852 20C24.3772 21.5 29.5638 31.5 29.5638 31.5" stroke="white" stroke-width="2"/>
<path d="M11.4106 27C19.7092 30 21.7839 35 21.7839 35" stroke="white" stroke-width="2"/>
<path d="M10.3733 30C16.5973 33 18.1532 35.5 18.1532 35.5" stroke="white" stroke-width="2"/>
<path d="M14.5226 16.8309C26.4518 16.8309 32.1571 29.3298 32.1571 29.3298" stroke="white" stroke-width="2"/>
<path d="M17.6346 14C29.5638 14 34.7505 25.5 34.7505 25.5" stroke="white" stroke-width="2"/>
<path d="M20.7465 11.3309C31.6385 11.3309 36.3064 21.3298 36.3064 21.3298" stroke="white" stroke-width="2"/>
<path d="M25.4145 9C31.6385 9.5 35.7878 15.5 35.7878 15.5" stroke="white" stroke-width="2"/>
<path d="M36.3438 18.8309C36.3438 28.1855 28.4667 35.8309 18.6719 35.8309C8.87711 35.8309 1 28.1855 1 18.8309C1 9.47632 8.87711 1.83093 18.6719 1.83093C28.4667 1.83093 36.3438 9.47632 36.3438 18.8309Z" stroke="white" stroke-width="2"/>
<path d="M4.66795 28.8298C2.59329 5.32983 25.4145 3.32983 25.4145 3.32983" stroke="white" stroke-width="2"/>
<path d="M7.26123 31.5C6.22395 7 28.5264 5 28.5264 5" stroke="white" stroke-width="2"/>
<path d="M2.59331 25C1.03735 5.00004 20.7465 2 20.7465 2" stroke="white" stroke-width="2"/>
<path d="M10.3732 33.8298C9.33595 8.82973 32.1571 7.32983 32.1571 7.32983" stroke="white" stroke-width="2"/>
</svg>
