<svg width="43" height="25" viewBox="0 0 43 25" fill="none" xmlns="http://www.w3.org/2000/svg">
<path d="M15.8881 23.955C6.79861 20.3537 3.32634e-06 3.54611 0 1.09711C0 1.09711 7.63085 -0.0408949 8.73843 1.09711C10.658 3.06941 12.7104 10.0776 14.2993 11.7107C14.2993 11.7107 15.8881 12.5269 16.6825 11.7107C16.6825 11.7107 17.4769 5.99558 16.6825 3.54635C16.1919 2.03401 14.2994 2.11177 14.2993 1.09735C14.2993 0.280015 20.7409 -0.897318 24.6265 1.09711C26.2152 1.9126 23.9471 12.5262 26.2153 12.5262C28.5985 12.5262 32.5709 1.91356 33.3649 1.09703C33.9047 0.541907 42.5425 0.365238 42.8978 1.09546C43.6922 2.72828 39.7201 9.25958 35.7482 14.1599C35.7482 14.1599 43.9026 21.8896 42.8978 23.955C42.1034 25.5878 33.3649 24.7714 33.3649 24.7714C29.3929 23.1386 28.5985 18.2401 26.2153 19.0584C24.8664 19.5216 25.7627 24.4795 24.6265 24.7714C21.4489 25.5878 15.8881 23.955 15.8881 23.955Z" fill="#20661F"/>
</svg>
