<svg width="32" height="30" viewBox="0 0 32 30" fill="none" xmlns="http://www.w3.org/2000/svg">
<path d="M23.5608 17.6023L19.7181 16.3747C18.9751 16.6802 18.2007 17.5429 17.7966 18.2163C17.7966 18.2163 14.5943 17.6026 12.0326 13.3073C12.7755 13.0017 13.528 12.4864 13.9539 11.4659L12.0325 7.78294C9.47088 7.16793 8.42748 9.12236 8.18987 10.2384C7.14471 15.1474 16.3479 21.7508 20.3585 21.285C22.9203 20.9874 24.2012 19.4436 23.5608 17.6023Z" fill="#20661F"/>
<path d="M3.41756 23.4949L3.61272 23.0047L3.3183 22.5669C1.84978 20.3833 1 17.7869 1 15C1 7.3061 7.50897 1 15.625 1C23.741 1 30.25 7.3061 30.25 15C30.25 22.6939 23.741 29 15.625 29C12.6244 29 9.83985 28.1359 7.52294 26.6571L7.15138 26.4199L6.72565 26.5342L1.66675 27.8922L3.41756 23.4949Z" stroke="#20661F" stroke-width="2"/>
</svg>
